<?xml version="1.0" standalone="no"?>
<!DOCTYPE svg PUBLIC "-//W3C//DTD SVG 20010904//EN"
 "http://www.w3.org/TR/2001/REC-SVG-20010904/DTD/svg10.dtd">
<svg version="1.0" xmlns="http://www.w3.org/2000/svg"
 width="1024.000000pt" height="1024.000000pt" viewBox="0 0 1024.000000 1024.000000"
 preserveAspectRatio="xMidYMid meet">
<metadata>
Created by potrace 1.14, written by Peter Selinger 2001-2017
</metadata>
<g transform="translate(0.000000,1024.000000) scale(0.100000,-0.100000)"
fill="#000000" stroke="none">
<path d="M1620 6375 l0 -3005 1770 0 1770 0 0 3005 0 3005 -1770 0 -1770 0 0
-3005z"/>
<path d="M6260 7400 l0 -1170 1990 0 1990 0 0 1170 0 1170 -1990 0 -1990 0 0
-1170z"/>
<path d="M1980 1440 l0 -1440 3970 0 3970 0 0 1440 0 1440 -3970 0 -3970 0 0
-1440z"/>
</g>
</svg>
